<svg width="27" height="25" viewBox="0 0 27 25" fill="none" xmlns="http://www.w3.org/2000/svg">
<path d="M13.4837 2.48364H12.667V5.99685H13.4837V2.48364Z" fill="white"/>
<mask id="mask0_58152_7856" style="mask-type:luminance" maskUnits="userSpaceOnUse" x="12" y="2" width="2" height="4">
<path d="M13.4837 2.48364H12.667V5.99685H13.4837V2.48364Z" fill="white"/>
</mask>
<g mask="url(#mask0_58152_7856)">
<g style="mix-blend-mode:multiply">
<path d="M9.21433 24.6905C5.00629 24.6905 1.53124 21.4055 1.30461 17.2117L1.07593 13.0015C0.957512 10.8129 1.72317 8.73025 3.2361 7.13871C4.74699 5.54716 6.78874 4.6709 8.98566 4.6709H17.1608C19.3577 4.6709 21.3995 5.54716 22.9104 7.13871C24.4213 8.73025 25.189 10.8129 25.0705 13.0015L24.8419 17.2117C24.6152 21.4055 21.1402 24.6905 16.9321 24.6905H9.21229H9.21433Z" fill="white"/>
</g>
</g>
<path d="M24.2335 16.8403H23.5128V10.0503H24.2335C25.379 10.0503 26.31 10.9795 26.31 12.1228V14.7679C26.31 15.9111 25.379 16.8403 24.2335 16.8403Z" fill="white"/>
<mask id="mask1_58152_7856" style="mask-type:luminance" maskUnits="userSpaceOnUse" x="23" y="10" width="4" height="7">
<path d="M24.2335 16.8403H23.5128V10.0503H24.2335C25.379 10.0503 26.31 10.9795 26.31 12.1228V14.7679C26.31 15.9111 25.379 16.8403 24.2335 16.8403Z" fill="white"/>
</mask>
<g mask="url(#mask1_58152_7856)">
<path d="M9.21433 24.6905C5.00629 24.6905 1.53124 21.4055 1.30461 17.2117L1.07593 13.0015C0.957512 10.8129 1.72317 8.73025 3.2361 7.13871C4.74699 5.54716 6.78874 4.6709 8.98566 4.6709H17.1608C19.3577 4.6709 21.3995 5.54716 22.9104 7.13871C24.4213 8.73025 25.189 10.8129 25.0705 13.0015L24.8419 17.2117C24.6152 21.4055 21.1402 24.6905 16.9321 24.6905H9.21229H9.21433Z" fill="#6062FF"/>
</g>
<path d="M2.07646 10.0491H2.79719V16.8391H2.07646C0.931036 16.8391 0 15.9099 0 14.7666V12.1215C0 10.9783 0.931036 10.0491 2.07646 10.0491Z" fill="white"/>
<mask id="mask2_58152_7856" style="mask-type:luminance" maskUnits="userSpaceOnUse" x="0" y="10" width="3" height="7">
<path d="M2.07646 10.0491H2.79719V16.8391H2.07646C0.931036 16.8391 0 15.9099 0 14.7666V12.1215C0 10.9783 0.931036 10.0491 2.07646 10.0491Z" fill="white"/>
</mask>
<g mask="url(#mask2_58152_7856)">
<g style="mix-blend-mode:multiply">
<path d="M9.21433 24.6907C5.00629 24.6907 1.53124 21.4058 1.30461 17.2119L1.07593 13.0018C0.957512 10.8132 1.72317 8.73049 3.2361 7.13895C4.74699 5.54741 6.78874 4.67114 8.98566 4.67114H17.1608C19.3577 4.67114 21.3995 5.54741 22.9104 7.13895C24.4213 8.73049 25.189 10.8132 25.0705 13.0018L24.8419 17.2119C24.6152 21.4058 21.1402 24.6907 16.9321 24.6907H9.21229H9.21433Z" fill="#6062FF"/>
</g>
</g>
<mask id="mask3_58152_7856" style="mask-type:luminance" maskUnits="userSpaceOnUse" x="1" y="5" width="24" height="20">
<path d="M16.9037 24.0364H9.24511C5.376 24.0364 2.18067 21.0164 1.97241 17.1588L1.74578 12.9812C1.52118 8.81795 4.84106 5.32104 9.01847 5.32104H17.1283C21.3057 5.32104 24.6256 8.81999 24.401 12.9812L24.1744 17.1588C23.9661 21.0164 20.7708 24.0364 16.9017 24.0364H16.9037Z" fill="white"/>
</mask>
<g mask="url(#mask3_58152_7856)">
<mask id="mask4_58152_7856" style="mask-type:luminance" maskUnits="userSpaceOnUse" x="0" y="4" width="26" height="22">
<path d="M25.434 4.30151H0.714569V25.0547H25.434V4.30151Z" fill="white"/>
</mask>
<g mask="url(#mask4_58152_7856)">
<rect x="0.636902" y="4.28345" width="24.893" height="20.8347" fill="white"/>
</g>
</g>
<path d="M9.21447 21.8024C6.54387 21.8024 4.33878 19.9745 4.19382 17.6391L3.96514 13.9466C3.8896 12.728 4.37758 11.5685 5.33516 10.684C6.29478 9.79759 7.58924 9.31055 8.98376 9.31055H17.1589C18.5534 9.31055 19.8499 9.79759 20.8075 10.684C21.7671 11.5705 22.2531 12.73 22.1775 13.9486L21.9488 17.6412C21.8039 19.9745 19.6008 21.8045 16.9282 21.8045H9.20835L9.21447 21.8024Z" fill="white"/>
<path d="M16.9342 22.2103H9.21436C6.32733 22.2103 3.94462 20.2133 3.7874 17.666L3.55873 13.9734C3.47501 12.6305 4.00791 11.3569 5.05941 10.3848C6.09457 9.42908 7.48909 8.90332 8.98569 8.90332H17.1608C18.6574 8.90332 20.052 9.42908 21.0871 10.3848C22.1386 11.3548 22.6715 12.6305 22.5878 13.9734L22.3591 17.666C22.2019 20.2153 19.8172 22.2103 16.9322 22.2103H16.9342ZM8.98569 9.71641C7.6953 9.71641 6.4968 10.1668 5.61272 10.9819C4.74498 11.7828 4.306 12.8282 4.37338 13.9204L4.60206 17.613C4.73273 19.7323 6.75814 21.3932 9.21436 21.3932H16.9342C19.3904 21.3932 21.4158 19.7323 21.5465 17.613L21.7752 13.9204C21.8426 12.8261 21.4015 11.7828 20.5358 10.9799C19.6518 10.1647 18.4553 9.71437 17.1629 9.71437H8.98773L8.98569 9.71641Z" fill="#6062FF"/>
<path d="M13.0732 3.17493C13.9517 3.17493 14.6638 2.4642 14.6638 1.58747C14.6638 0.710733 13.9517 0 13.0732 0C12.1948 0 11.4827 0.710733 11.4827 1.58747C11.4827 2.4642 12.1948 3.17493 13.0732 3.17493Z" fill="white"/>
<path d="M12.1157 19.0334C12.2484 19.1088 12.718 19.3595 13.4122 19.3615C14.0697 19.3615 14.5209 19.1415 14.6638 19.0661" fill="#6062FF"/>
<path d="M13.4183 19.7669H13.4102C12.6813 19.7669 12.1586 19.5265 11.9115 19.3858C11.7155 19.2738 11.6481 19.0251 11.7604 18.8295C11.8727 18.6339 12.1218 18.5666 12.3178 18.6787C12.4607 18.7602 12.8528 18.9518 13.4122 18.9518H13.4183C13.9308 18.9518 14.2963 18.7969 14.4698 18.7052C14.6699 18.5992 14.917 18.6746 15.0231 18.8723C15.1293 19.07 15.0538 19.3186 14.8557 19.4246C14.6148 19.5529 14.1084 19.7669 13.4204 19.7669H13.4183Z" fill="#6062FF"/>
<path d="M8.67122 16.4105C9.66465 16.4105 10.47 15.562 10.47 14.5153C10.47 13.4686 9.66465 12.6201 8.67122 12.6201C7.67778 12.6201 6.87244 13.4686 6.87244 14.5153C6.87244 15.562 7.67778 16.4105 8.67122 16.4105Z" fill="#6062FF"/>
<path d="M8.19756 15.0661C8.60125 15.0661 8.9285 14.7221 8.9285 14.2978C8.9285 13.8735 8.60125 13.5295 8.19756 13.5295C7.79387 13.5295 7.46661 13.8735 7.46661 14.2978C7.46661 14.7221 7.79387 15.0661 8.19756 15.0661Z" fill="white"/>
<path d="M17.4773 16.4105C18.4707 16.4105 19.2761 15.562 19.2761 14.5153C19.2761 13.4686 18.4707 12.6201 17.4773 12.6201C16.4839 12.6201 15.6785 13.4686 15.6785 14.5153C15.6785 15.562 16.4839 16.4105 17.4773 16.4105Z" fill="#6062FF"/>
<path d="M17.0037 15.0661C17.4073 15.0661 17.7346 14.7221 17.7346 14.2978C17.7346 13.8735 17.4073 13.5295 17.0037 13.5295C16.6 13.5295 16.2727 13.8735 16.2727 14.2978C16.2727 14.7221 16.6 15.0661 17.0037 15.0661Z" fill="white"/>
</svg>
