<svg width="16" height="16" viewBox="0 0 16 16" fill="none" xmlns="http://www.w3.org/2000/svg">
<path d="M8 2C6.4087 2 4.88258 2.63214 3.75736 3.75736C2.63214 4.88258 2 6.4087 2 8H0L2.66667 10.6667L5.33333 8H3.33333C3.33333 6.76232 3.825 5.57534 4.70017 4.70017C5.57534 3.825 6.76232 3.33333 8 3.33333C9.23768 3.33333 10.4247 3.825 11.2998 4.70017C12.175 5.57534 12.6667 6.76232 12.6667 8C12.6667 9.23768 12.175 10.4247 11.2998 11.2998C10.4247 12.175 9.23768 12.6667 8 12.6667C7 12.6667 6.06 12.3333 5.29333 11.8L4.33333 12.76C5.36 13.5333 6.62667 14 8 14C9.5913 14 11.1174 13.3679 12.2426 12.2426C13.3679 11.1174 14 9.5913 14 8C14 6.4087 13.3679 4.88258 12.2426 3.75736C11.1174 2.63214 9.5913 2 8 2M9.33333 8C9.33333 7.64638 9.19286 7.30724 8.94281 7.05719C8.69276 6.80714 8.35362 6.66667 8 6.66667C7.64638 6.66667 7.30724 6.80714 7.05719 7.05719C6.80714 7.30724 6.66667 7.64638 6.66667 8C6.66667 8.35362 6.80714 8.69276 7.05719 8.94281C7.30724 9.19286 7.64638 9.33333 8 9.33333C8.35362 9.33333 8.69276 9.19286 8.94281 8.94281C9.19286 8.69276 9.33333 8.35362 9.33333 8Z" fill="white"/>
</svg>
