<svg width="16" height="16" viewBox="0 0 16 16" fill="none" xmlns="http://www.w3.org/2000/svg">
<path d="M6 2.00008V0.666748H10V2.00008H6ZM7.33333 9.33341H8.66667V5.33341H7.33333V9.33341ZM8 14.6667C7.17778 14.6667 6.40278 14.5084 5.675 14.1917C4.94722 13.8751 4.31111 13.4445 3.76667 12.9001C3.22222 12.3556 2.79167 11.7195 2.475 10.9917C2.15833 10.264 2 9.48897 2 8.66675C2 7.84453 2.15833 7.06953 2.475 6.34175C2.79167 5.61397 3.22222 4.97786 3.76667 4.43341C4.31111 3.88897 4.94722 3.45841 5.675 3.14175C6.40278 2.82508 7.17778 2.66675 8 2.66675C8.68889 2.66675 9.35 2.77786 9.98333 3.00008C10.6167 3.2223 11.2111 3.54453 11.7667 3.96675L12.7 3.03341L13.6333 3.96675L12.7 4.90008C13.1222 5.45564 13.4444 6.05008 13.6667 6.68342C13.8889 7.31675 14 7.97786 14 8.66675C14 9.48897 13.8417 10.264 13.525 10.9917C13.2083 11.7195 12.7778 12.3556 12.2333 12.9001C11.6889 13.4445 11.0528 13.8751 10.325 14.1917C9.59722 14.5084 8.82222 14.6667 8 14.6667ZM8 13.3334C9.28889 13.3334 10.3889 12.8779 11.3 11.9667C12.2111 11.0556 12.6667 9.95564 12.6667 8.66675C12.6667 7.37786 12.2111 6.27786 11.3 5.36675C10.3889 4.45564 9.28889 4.00008 8 4.00008C6.71111 4.00008 5.61111 4.45564 4.7 5.36675C3.78889 6.27786 3.33333 7.37786 3.33333 8.66675C3.33333 9.95564 3.78889 11.0556 4.7 11.9667C5.61111 12.8779 6.71111 13.3334 8 13.3334Z" fill="#000646"/>
</svg>
